<svg width="300" height="63" viewBox="0 0 300 63" fill="none" xmlns="http://www.w3.org/2000/svg">
<path d="M298.05 3.66481C298.05 2.9028 297.65 2.44559 296.45 2.44559H294.5V7.06845H295.05V4.93482H296.05L297.3 7.06845H297.95L296.6 4.93482C297.25 5.03643 297.9 4.57922 298 3.86801C298.05 3.81721 298.05 3.71561 298.05 3.66481ZM295.9 4.47762H295.05V2.852H296.35C296.9 2.852 297.45 2.9536 297.45 3.66481C297.45 4.57922 296.5 4.47762 295.9 4.47762ZM296 0.616766C293.75 0.565965 291.85 2.39479 291.8 4.68082C291.75 6.96685 293.55 8.89728 295.8 8.94808C298.05 8.99888 299.95 7.17006 300 4.88403C300 4.83323 300 4.83322 300 4.78242C300 2.49639 298.25 0.616766 296 0.616766ZM296 8.33847C294.05 8.38927 292.45 6.81445 292.4 4.83322C292.35 2.852 293.9 1.22638 295.85 1.17558C297.8 1.12478 299.4 2.69959 299.45 4.68082C299.45 4.73162 299.45 4.73162 299.45 4.78242C299.5 6.71285 297.95 8.33847 296 8.33847ZM287.85 3.46161H278.75V13.1645H273.05V18.2954C270.45 14.4854 266.15 12.1993 261.6 12.1993C257.25 11.9961 253.25 14.3838 251.3 18.3462H251.2V13.1645H242.5V31.3512C242.25 15.5522 233.05 12.2501 226.3 12.2501C218.35 11.6913 211.3 17.5334 210.25 25.5599C209.2 14.7394 200.45 12.2501 195.05 12.2501C184.1 12.2501 179.15 19.5146 178.6 29.9796V24.2391C178.55 17.5334 173.15 12.1485 166.55 12.1993C162.25 12.2501 158.3 14.6378 156.2 18.4478H156.05V13.2153H147.35V29.6239C146.7 17.7874 138.65 12.3009 129.8 12.3009C120.55 12.3009 112.15 18.2446 112.15 31.148C112.15 32.0116 112.2 32.8244 112.25 33.6372H104.05L104 33.7388C103.1 38.4125 98.95 41.6637 94.3 41.3589C91.65 41.4605 89.05 40.3937 87.2 38.4633C84.2 34.7548 82.7 30.0812 83.05 25.3059C83.05 10.0657 91.7 8.89728 94.35 8.89728C99.3 8.38927 103.75 11.9961 104.4 16.9746V17.0762H114.2V16.9746C113.8 11.0309 109.05 0.00715943 94.25 0.00715943C88.55 -0.145243 83.1 2.14079 79.2 6.35724C74.9 11.5897 72.7 18.2954 73.05 25.1535C73.05 25.7123 73.1 26.2711 73.1 26.8299C71.95 18.143 64.45 11.7421 55.8 12.2501C46.55 12.2501 38.15 18.1938 38.15 31.0972C38.15 31.3512 38.2 31.6052 38.2 31.8592C37.8 27.7443 35.05 24.2899 31.2 22.9183C35.05 21.2418 37.35 17.2286 36.9 13.0121C36.9 8.03367 34 0.616766 22.55 0.616766H0V49.0298H19.7C29.2 49.0298 31.75 47.3534 34.4 44.661C36.95 42.0193 38.4 38.4125 38.4 34.704V34.6532C39.2 43.6958 46.85 50.503 55.8 49.995C65.05 49.995 73.45 44.0513 73.45 31.148C73.45 31.0464 73.45 30.9448 73.45 30.7924C74 35.974 76.2 40.8509 79.7 44.661C83.55 48.471 88.8 50.4522 94.15 50.0966C102.55 50.5538 110.2 45.2706 112.95 37.1933C114.85 45.0166 121.95 50.4014 129.85 49.9442C138.75 49.9442 146.75 44.4578 147.4 32.6212V49.0298H156.5V28.4555C156.5 23.0199 159.6 20.175 163.65 20.175C169.4 20.175 169.55 24.6455 169.55 27.2363V49.0298H178.65V33.8912C179.1 41.2065 182.55 50.0458 194.55 50.0458C202.65 50.5538 209.6 44.4069 210.3 36.228C212.05 46.4898 218.7 50.0458 227 50.0458C232.9 50.0458 238.85 47.2518 241.65 38.5649H232.3C231.7 41.0033 229.45 42.6289 227 42.4765C219.7 42.4765 219.15 36.4312 218.9 33.688H242.5V63H251.6V44.4578H251.75C253.6 48.1154 257.45 50.2998 261.5 49.995C271.75 49.995 276.55 40.5461 276.55 30.6908C276.65 27.0331 275.85 23.4263 274.25 20.1242H278.85V41.6637C278.85 46.3374 280.3 49.3854 288.15 49.3854H289.3C290.75 49.3854 292.15 49.3346 293.6 49.233V42.1209C292.95 42.1717 292.3 42.2733 291.7 42.2733C288 42.2733 287.95 41.4605 287.95 39.3777V20.1242H293.5V13.1645H287.85V3.46161ZM9.35 8.99888H20.5C24.9 8.99888 27.65 10.2181 27.65 14.1805C27.65 18.0414 24.6 20.1242 20.8 20.1242H9.4L9.35 8.99888ZM21.25 40.6985H9.3V27.5411H21.7C25.2 27.5411 28.7 29.37 28.7 33.5864C28.7 38.5141 26 40.6985 21.25 40.6985ZM55.85 42.0193C48.85 42.0193 47.55 35.6692 47.55 31.0972C47.55 26.5251 48.85 20.175 55.85 20.175C62.85 20.175 64.15 26.5251 64.15 31.0972C64.15 35.6692 62.85 42.0193 55.85 42.0193ZM129.85 42.0193C122.85 42.0193 121.55 35.6692 121.55 31.0972C121.55 26.5251 122.85 20.175 129.85 20.175C136.85 20.175 138.15 26.5251 138.15 31.0972C138.15 35.6692 136.85 42.0193 129.85 42.0193ZM201.05 35.974C200.95 39.3777 198.25 42.1209 194.9 42.2225C188.05 42.2225 187.9 34.45 187.9 30.5384C187.9 26.1187 189.4 20.175 195.1 20.175C198.35 20.1242 201 22.7151 201.15 25.9663H210.2C209.95 27.3887 209.8 28.862 209.8 30.3352C209.8 32.2148 209.95 34.0944 210.25 35.9232L201.05 35.974ZM219.1 27.5411C219.6 22.8167 221.9 20.1242 226.15 20.1242C229.05 20.1242 232.65 21.7499 233.15 27.5411H219.1ZM259.15 42.2225C253.4 42.2225 251.2 37.2441 251.2 31.91C251.2 26.1695 252.7 20.1242 258.9 20.1242C264.65 20.1242 267.15 25.7123 267.15 31.3512C267.15 35.6184 265 42.2225 259.15 42.2225Z" fill="#CBCBCB"/>
</svg>
