<svg width="164" height="99" viewBox="0 0 164 99" fill="none" xmlns="http://www.w3.org/2000/svg">
<path d="M12.8656 95.4637C12.8656 96.7542 12.6695 98.752 9.49473 98.752H5.72636C2.55163 98.752 2.35547 96.7542 2.35547 95.4637V83.6371C2.35547 82.3466 2.55163 80.354 5.72636 80.354H9.49473C12.6695 80.354 12.8656 82.3466 12.8656 83.6371V86.2389H8.32294V82.9816C8.32294 82.6615 8.02869 82.3776 7.6054 82.3776C7.35245 82.3776 6.89302 82.5118 6.89302 82.9816V96.1244C6.89302 96.5942 7.35245 96.7284 7.6054 96.7284C8.02869 96.7284 8.32294 96.4341 8.32294 96.1244V91.7624H7.63637V89.7337H12.8656V95.4637Z" fill="#CBCBCB"/>
<path d="M24.6972 91.8398L23.9281 82.6099H23.6596L22.8801 91.8398H24.6972ZM20.2319 80.354H27.3609L29.7252 98.752H25.2805L24.8624 93.8582H22.7201L22.302 98.752H17.8677L20.2319 80.354Z" fill="#CBCBCB"/>
<path d="M46.528 80.354H52.4335V98.752H47.8857V87.2094H47.7257L45.3975 98.752H41.7582L39.4301 87.2094H39.2597V98.752H34.7222V80.354H40.6328L43.5753 93.2801L46.528 80.354Z" fill="#CBCBCB"/>
<path d="M58.0088 80.354H67.2232V82.3776H62.5515V88.0818H67.2232V90.1053H62.5515V96.7284H67.4091V98.752H58.0088V80.354Z" fill="#CBCBCB"/>
<path d="M91.1237 98.752H85.1614L82.2964 80.354H86.9733L88.1348 93.8066H88.3L89.668 80.354H95.2018L96.5749 93.8066H96.735L97.9068 80.354H102.573L99.7187 98.752H93.7461L92.5536 86.2389H92.3265L91.1237 98.752Z" fill="#CBCBCB"/>
<path d="M113.538 82.9816C113.538 82.6615 113.244 82.3776 112.826 82.3776C112.562 82.3776 112.113 82.5118 112.113 82.9816V96.1244C112.113 96.5942 112.562 96.7284 112.826 96.7284C113.244 96.7284 113.538 96.4341 113.538 96.1244V82.9816ZM107.565 83.6371C107.565 82.3466 107.762 80.354 110.941 80.354H114.71C117.885 80.354 118.07 82.3466 118.07 83.6371V95.4637C118.07 96.7542 117.885 98.752 114.71 98.752H110.941C107.762 98.752 107.565 96.7542 107.565 95.4637V83.6371Z" fill="#CBCBCB"/>
<path d="M128.782 89.9247C129.262 89.9247 129.623 89.5736 129.623 88.9955V83.2913C129.623 82.708 129.262 82.3776 128.782 82.3776H128.193V89.9247H128.782ZM130.072 98.752L128.524 91.9431H128.193V98.752H123.656V80.354H130.79C133.975 80.354 134.161 82.3466 134.161 83.6371V89.3362C134.161 89.8369 134.13 91.0448 132.509 91.5714L134.744 98.752H130.072Z" fill="#CBCBCB"/>
<path d="M139.736 80.354H144.284V96.7284H148.367V98.752H139.736V80.354Z" fill="#CBCBCB"/>
<path d="M158.485 96.7284C158.975 96.7284 159.326 96.3877 159.326 95.8044V83.2913C159.326 82.708 158.975 82.3776 158.485 82.3776H157.907V96.7284H158.485ZM153.369 80.354H160.498C163.673 80.354 163.874 82.3466 163.874 83.6371V95.4637C163.874 96.7542 163.673 98.752 160.498 98.752H153.369V80.354Z" fill="#CBCBCB"/>
<path d="M107.844 65.2083C96.797 64.6663 97.5042 53.5367 97.5042 53.5367V37.534C97.401 37.5391 97.339 37.5443 97.339 37.5443L97.5042 37.4669V37.534C98.1495 37.4927 100.834 37.3378 105.495 37.5443C110.9 37.7766 111.292 38.3289 111.292 38.3289C119.221 39.5059 120.465 47.6518 120.465 47.6518V51.255C121.173 64.6663 107.927 65.2909 107.844 65.2083ZM91.2373 31.742H71.0223C71.0223 31.742 73.6757 14.8876 50.5647 14.8876C50.6369 14.9753 41.9387 14.9753 41.9387 14.9753C41.9387 14.9753 41.3141 5.56989 58.7932 5.56989H100.163C100.163 5.56989 115.845 4.39807 119.139 14.9753C119.221 15.0579 109.966 14.9753 109.966 14.9753C109.966 14.9753 91.5522 14.423 91.2373 31.742ZM41.4638 20.7724H52.0514C52.0514 20.7724 64.9774 19.5955 64.5903 31.5923H58.0859C58.0859 31.5923 41.2263 32.5267 41.4638 20.7724ZM67.3985 65.6006C67.3985 65.6006 71.7192 61.5329 70.9397 46.7949C70.9397 46.8775 35.5118 46.7949 35.5118 46.7949V51.9622C35.5118 51.9622 35.3466 61.2128 41.1489 65.6006C41.1489 65.6781 20.9339 65.6006 20.9339 65.6006C20.9339 65.6006 14.9767 65.6006 12.5505 64.1965C12.5505 64.1965 6.50564 62.6272 6.43337 54.2387C6.35594 45.8502 6.43337 33.7088 6.43337 33.7088C6.43337 33.7088 6.8257 27.0445 8.46726 25.2325C9.25707 24.3034 10.4237 21.872 14.9767 21.3248C14.9767 21.3248 16.3912 20.7724 23.1278 20.7724H30.6542H34.7994C34.7994 20.7724 34.722 30.0179 40.6843 33.6211C40.7566 33.6211 46.3988 37.312 58.6331 37.312H91.005V52.2048C91.005 52.2048 90.6076 59.3441 94.7631 65.6006H67.3985ZM55.9695 65.1309C55.9695 65.1309 42.3259 64.5889 42.3259 52.4371H64.518C64.518 52.4371 65.6124 65.2909 55.9695 65.1309ZM162.011 55.4157C162.011 55.4157 155.656 55.3383 155.739 55.4157C155.811 66.7828 142.343 65.4819 142.343 65.4819H122.701C129.055 58.7814 126.701 46.2116 126.701 46.0877C126.113 36.3312 113.063 33.1513 113.063 33.2752C106.481 31.742 97.5403 31.6285 97.5403 31.6285C97.7778 20.1065 110.482 20.8137 110.482 20.8137C110.482 20.8137 130.573 20.5763 143.623 20.8137C156.683 21.0512 155.852 30.9213 155.852 30.9213C155.852 30.9213 162.088 31.04 162.088 30.9213C162.207 14.934 143.52 15.0579 143.52 15.0579C143.52 15.0579 125.875 15.1715 125.875 15.0579C123.403 -0.108505 103.663 -9.91821e-05 103.663 -9.91821e-05H54.9835C37.3134 0.242523 35.0369 14.9753 35.0369 14.9753H20.1492C-0.943351 14.8153 0.00648398 32.4492 0.00648398 32.4492C0.00648398 32.4492 0.0839164 35.5104 0.00648398 54.1665C-0.0709484 72.8122 21.3623 71.4081 21.3623 71.4081H141.47C164.519 71.4081 162.011 55.4157 162.011 55.4157Z" fill="#CBCBCB"/>
</svg>
