<svg width="260" height="79" viewBox="0 0 260 79" fill="none" xmlns="http://www.w3.org/2000/svg">
<path d="M0 55.8286V1.15625H9.60386V55.8286H0Z" fill="#CBCBCB"/>
<path d="M34.1875 16.166C21.8741 16.166 13.353 25.6334 13.353 36.4698C13.353 48.5639 22.6229 56.8954 34.2832 56.8954C45.3494 56.8954 54.9523 48.7172 54.9523 36.4437C54.9523 26.1229 46.9949 16.166 34.1875 16.166ZM34.0744 25.4306C40.5183 25.4306 45.2615 30.4467 45.2615 36.5046C45.2615 42.9278 40.032 47.6134 34.2484 47.6134C27.4143 47.6134 23.1135 42.1968 23.1135 36.522C23.1135 30.3017 27.9692 25.4306 34.0744 25.4306Z" fill="#CBCBCB"/>
<path d="M79.082 16.166C66.7686 16.166 58.2476 25.6334 58.2476 36.4698C58.2476 48.5639 67.5175 56.8954 79.1777 56.8954C90.2439 56.8954 99.8469 48.7172 99.8469 36.4437C99.8469 29.2161 96.7169 26.0093 96.7169 26.0093L99.3788 25.0965V17.302H85.7385C85.7385 17.302 82.7815 16.166 79.082 16.166ZM78.9689 25.4306C85.4129 25.4306 90.156 30.4467 90.156 36.5046C90.156 42.9278 84.9266 47.6134 79.1429 47.6134C72.3089 47.6134 68.008 42.1968 68.008 36.522C68.008 30.3017 72.8637 25.4306 78.9689 25.4306Z" fill="#CBCBCB"/>
<path d="M90.0882 58.501C90.0882 64.9241 84.8587 69.6446 79.075 69.6446C72.241 69.6446 67.9227 64.1758 67.9227 58.501H58.1797C58.1797 70.595 67.4496 78.9266 79.1098 78.9266C90.176 78.9266 99.779 70.7745 99.779 58.501H90.0882Z" fill="#CBCBCB"/>
<path d="M103.694 55.8288V17.302H113.298V55.8288H103.694Z" fill="#CBCBCB"/>
<path d="M122.623 55.8288V25.9316H117.473V17.302H122.623V5.47119H132.227V17.302H137.516V25.9316H132.227V55.8288H122.623Z" fill="#CBCBCB"/>
<path d="M114.835 6.35964C114.835 9.87198 111.988 12.7193 108.476 12.7193C104.964 12.7193 102.116 9.87198 102.116 6.35964C102.116 2.84731 104.964 0 108.476 0C111.988 0 114.835 2.84731 114.835 6.35964Z" fill="#CBCBCB"/>
<path d="M159.108 16.1399C146.736 16.1399 138.76 25.6123 138.76 36.8178C138.76 48.3974 146.762 56.9215 159.308 56.9215C171.01 56.9215 176.767 49.6142 176.767 49.6142L170.347 43.1856C170.347 43.1856 165.499 48.4137 159.429 48.4137C154.369 48.4137 150.324 45.5895 148.912 40.4105H178.837V37.766C178.837 27.2139 172.73 16.1399 159.108 16.1399ZM158.803 24.5955C163.227 24.5955 167.752 26.9623 168.764 32.6161H148.651C149.448 28.6418 152.925 24.5955 158.803 24.5955Z" fill="#CBCBCB"/>
<path d="M202.859 56.9266C190.452 56.9266 181.999 47.4773 181.999 36.3358C181.999 24.8378 191.553 16.1328 202.819 16.1328C213.711 16.1328 219.285 23.8215 219.285 23.8215L212.586 30.4906C212.586 30.4906 208.705 25.4764 202.774 25.4764C196.2 25.4764 191.704 30.5054 191.704 36.4832C191.704 42.7952 196.486 47.6378 202.7 47.6378C208.727 47.6378 212.577 42.6317 212.577 42.6317L219.343 49.2973C219.343 49.2973 213.822 56.9266 202.859 56.9266Z" fill="#CBCBCB"/>
<path d="M222.837 55.8567V1.01733H232.441V21.1656C232.441 21.1656 236.119 16.1328 244.118 16.1328C254.174 16.1328 260 23.6083 260 33.1694V55.8567H250.396V34.6209C250.396 28.1976 246.397 25.5327 241.967 25.5327C236.919 25.5327 232.441 28.4053 232.441 35.118V55.8567H222.837Z" fill="#CBCBCB"/>
</svg>
