<svg width="228" height="21" viewBox="0 0 228 21" fill="none" xmlns="http://www.w3.org/2000/svg">
<path d="M8.512 20.392C6.57067 20.392 4.93733 19.9627 3.612 19.104C2.28667 18.2267 1.35333 17.0413 0.812 15.548L4.116 13.616C4.88133 15.6133 6.384 16.612 8.624 16.612C9.70667 16.612 10.5 16.416 11.004 16.024C11.508 15.632 11.76 15.1373 11.76 14.54C11.76 13.8493 11.452 13.3173 10.836 12.944C10.22 12.552 9.11867 12.132 7.532 11.684C6.65467 11.4227 5.908 11.1613 5.292 10.9C4.69467 10.6387 4.088 10.2933 3.472 9.864C2.87467 9.416 2.41733 8.856 2.1 8.184C1.78267 7.512 1.624 6.728 1.624 5.832C1.624 4.05867 2.24933 2.64933 3.5 1.604C4.76933 0.539999 6.29067 0.0079987 8.064 0.0079987C9.65067 0.0079987 11.0413 0.399999 12.236 1.184C13.4493 1.94933 14.392 3.02267 15.064 4.404L11.816 6.28C11.032 4.6 9.78133 3.76 8.064 3.76C7.26133 3.76 6.62667 3.94667 6.16 4.32C5.712 4.67467 5.488 5.14133 5.488 5.72C5.488 6.336 5.74 6.84 6.244 7.232C6.76667 7.60533 7.756 8.016 9.212 8.464C9.80933 8.65067 10.2573 8.8 10.556 8.912C10.8733 9.00533 11.2933 9.164 11.816 9.388C12.3573 9.59333 12.768 9.78933 13.048 9.976C13.3467 10.1627 13.6827 10.4147 14.056 10.732C14.4293 11.0493 14.7093 11.376 14.896 11.712C15.1013 12.048 15.2693 12.4587 15.4 12.944C15.5493 13.4107 15.624 13.924 15.624 14.484C15.624 16.2947 14.9613 17.732 13.636 18.796C12.3293 19.86 10.6213 20.392 8.512 20.392ZM30.9573 0.399999V4.096H25.6653V20H21.8013V4.096H16.5373V0.399999H30.9573ZM44.4264 20L40.4784 13.196H37.5384V20H33.6744V0.399999H41.5144C43.325 0.399999 44.865 1.03467 46.1344 2.304C47.4037 3.57333 48.0384 5.104 48.0384 6.896C48.0384 8.10933 47.693 9.23867 47.0024 10.284C46.3117 11.3107 45.397 12.0853 44.2584 12.608L48.5984 20H44.4264ZM37.5384 4.012V9.808H41.5144C42.2424 9.808 42.8677 9.528 43.3904 8.968C43.913 8.38933 44.1744 7.69867 44.1744 6.896C44.1744 6.09333 43.913 5.412 43.3904 4.852C42.8677 4.292 42.2424 4.012 41.5144 4.012H37.5384ZM51.4336 0.399999H55.2976V20H51.4336V0.399999ZM78.6658 0.399999V20H74.8298V7.288L69.3138 16.388H68.8658L63.3498 7.316V20H59.4858V0.399999H63.4618L69.0898 9.668L74.6898 0.399999H78.6658ZM98.1938 20H93.7418L86.7418 10.816V20H82.8778V0.399999H86.7418V9.052L93.4618 0.399999H97.9138L90.6618 9.92L98.1938 20ZM100.664 0.399999H104.528V20H100.664V0.399999ZM128.877 20L127.701 16.472H119.889L118.713 20H114.541L121.401 0.399999H126.189L133.077 20H128.877ZM121.121 12.86H126.497L123.809 4.852L121.121 12.86ZM154.065 9.472V10.984C154.065 13.784 153.169 16.052 151.377 17.788C149.585 19.524 147.27 20.392 144.433 20.392C141.409 20.392 138.898 19.412 136.901 17.452C134.922 15.4733 133.933 13.0653 133.933 10.228C133.933 7.372 134.913 4.95467 136.873 2.976C138.851 0.997332 141.297 0.0079987 144.209 0.0079987C146.038 0.0079987 147.709 0.427999 149.221 1.268C150.733 2.08933 151.909 3.19067 152.749 4.572L149.445 6.476C148.978 5.67333 148.269 5.02 147.317 4.516C146.383 4.012 145.338 3.76 144.181 3.76C142.314 3.76 140.774 4.376 139.561 5.608C138.366 6.82133 137.769 8.36133 137.769 10.228C137.769 12.076 138.375 13.6067 139.589 14.82C140.821 16.0147 142.445 16.612 144.461 16.612C145.954 16.612 147.186 16.2853 148.157 15.632C149.146 14.96 149.818 14.0453 150.173 12.888H144.237V9.472H154.065ZM161.237 16.304H169.497V20H157.373V0.399999H169.357V4.096H161.237V8.268H168.657V11.908H161.237V16.304ZM184.121 0.399999H187.985V20H185.045L176.645 8.016V20H172.781V0.399999H175.721L184.121 12.356V0.399999ZM201.477 20.392C198.527 20.392 196.091 19.412 194.169 17.452C192.246 15.492 191.285 13.0747 191.285 10.2C191.285 7.30667 192.246 4.88933 194.169 2.948C196.091 0.987999 198.527 0.0079987 201.477 0.0079987C203.25 0.0079987 204.883 0.427999 206.377 1.268C207.889 2.08933 209.065 3.20933 209.905 4.628L206.573 6.56C206.087 5.68267 205.397 5.00133 204.501 4.516C203.605 4.012 202.597 3.76 201.477 3.76C199.573 3.76 198.033 4.35733 196.857 5.552C195.699 6.74667 195.121 8.296 195.121 10.2C195.121 12.0853 195.699 13.6253 196.857 14.82C198.033 16.0147 199.573 16.612 201.477 16.612C202.597 16.612 203.605 16.3693 204.501 15.884C205.415 15.38 206.106 14.6987 206.573 13.84L209.905 15.772C209.065 17.1907 207.898 18.32 206.405 19.16C204.911 19.9813 203.269 20.392 201.477 20.392ZM227.913 0.399999L221.193 12.356V20H217.357V12.356L210.665 0.399999H215.033L219.289 8.576L223.545 0.399999H227.913Z" fill="#F4F4F4"/>
</svg>
