<svg width="218" height="67" viewBox="0 0 218 67" fill="none" xmlns="http://www.w3.org/2000/svg">
<path d="M39.9248 31.2693L42.2846 22.9334H53.233C58.9973 22.9334 62.4792 20.2722 64.104 14.6758L64.9938 11.5841C67.0442 4.46145 63.7171 0.0391379 56.444 0.0391379H8.85927L0 31.2693H39.9248ZM56.3666 8.41413L54.5097 15.2237H44.4898L46.3854 8.45327H56.3666V8.41413ZM69.0559 31.2693L71.9961 26.0251H85.5365V31.2693H94.4344V0H76.948L58.7265 31.2693H69.0559ZM81.8612 8.49241H85.5365V18.4328H76.2516L81.8612 8.49241ZM130.761 14.3627L131.574 11.545C133.624 4.34404 130.297 0 123.024 0H106.118L97.2586 31.2693H106.505L108.942 22.6595H114.706L117.337 31.2693H126.854L124.068 22.0724C127.396 21.0549 129.601 18.472 130.761 14.3627ZM112.927 8.41413H122.908L121.051 15.1846H111.031L112.927 8.41413ZM139.427 31.2693L148.286 0H139.002L130.181 31.2693H139.427ZM82.6737 35.6916L72.2282 48.1758L67.934 35.6916H27.8545L19.0339 67H58.9973L63.8719 49.7021L67.1216 59.3686H73.0793L81.7065 49.0759L76.5998 67H85.846L94.6665 35.6916H82.6737ZM107.085 35.6916L88.8248 66.9609H99.1542L102.094 61.7167H115.635V66.9609H124.533V35.7307L107.085 35.6916ZM106.389 54.2027L111.96 44.2623H115.635V54.2027H106.389ZM155.869 44.6536L158.384 35.6916H130.258L127.744 44.6536H137.918L131.574 67H140.82L147.165 44.6536H155.869ZM168.21 44.6536H182.253L184.807 35.7307H169.835C164.071 35.7307 160.589 38.3919 158.964 43.9883L155.676 55.4159C153.587 62.7342 156.952 66.9609 164.225 66.9609H175.87L178.385 58.038H164.341L168.21 44.6536ZM208.754 35.6916L205.582 46.8843H194.981L198.115 35.6916H188.869L180.048 67H189.294L192.428 55.8072H203.028L199.895 67H209.179L218 35.6916H208.754Z" fill="#CBCBCB"/>
</svg>
