<svg width="85" height="85" viewBox="0 0 85 85" fill="none" xmlns="http://www.w3.org/2000/svg">
<path fill-rule="evenodd" clip-rule="evenodd" d="M12.5 0C5.59644 0 0 5.59644 0 12.5V72.5C0 79.4036 5.59644 85 12.5 85H72.5C79.4036 85 85 79.4036 85 72.5V12.5C85 5.59644 79.4036 0 72.5 0H12.5ZM12.9499 43.9238C14.1874 41.7172 16.0437 39.4224 18.5629 36.9068L49.0586 6.45588L58.7818 16.1649L30.4076 44.4975C28.4187 46.4835 27.9768 48.0722 29.1259 49.2196C30.3192 50.4112 31.9545 50.014 33.9433 48.0281L48.3072 33.6852C51.9755 30.0223 55.1577 27.5509 57.8537 26.1828C63.0689 23.5349 67.135 24.5058 70.8475 28.2129C74.6926 32.0523 75.4881 36.289 72.3502 41.8055C71.1127 44.0121 69.2564 46.3069 66.7372 48.8224L35.7996 79.7147L26.0763 70.0057L54.8925 41.2318C56.8814 39.2458 57.3233 37.6571 56.1742 36.5097C54.9809 35.3181 53.3456 35.7153 51.3568 37.7012L36.9929 52.0441C33.4129 55.6187 30.3192 58.0901 27.7558 59.4141C22.3638 62.2385 17.8115 61.7531 14.0106 57.9577C10.1655 54.1183 9.81194 49.4403 12.9499 43.9238Z" fill="#F44241"/>
</svg>
