<svg width="43" height="35" viewBox="0 0 43 35" fill="none" xmlns="http://www.w3.org/2000/svg">
<path d="M13.5274 35C29.7498 35 38.6253 21.5331 38.6253 9.85814C38.6253 9.47955 38.6169 9.09254 38.6001 8.71395C40.3266 7.46315 41.8166 5.91386 43 4.13888C41.392 4.85555 39.6848 5.3236 37.9366 5.52705C39.7773 4.42176 41.1555 2.6854 41.8158 0.639847C40.0842 1.66789 38.1904 2.39309 36.2157 2.78436C34.8853 1.36817 33.1261 0.430482 31.2103 0.116274C29.2944 -0.197935 27.3286 0.128836 25.6168 1.04606C23.9049 1.96329 22.5424 3.41989 21.7398 5.19066C20.9372 6.96142 20.7393 8.94773 21.1767 10.8425C17.6703 10.6662 14.2401 9.75376 11.1083 8.16427C7.97655 6.57478 5.2132 4.34373 2.9974 1.61577C1.87122 3.56085 1.5266 5.86251 2.0336 8.05298C2.54059 10.2434 3.86115 12.1583 5.72689 13.4085C4.32621 13.3639 2.95621 12.9862 1.73008 12.3064V12.4157C1.72882 14.4569 2.43326 16.4356 3.72364 18.0154C5.01402 19.5951 6.8107 20.6785 8.80828 21.0813C7.51077 21.4369 6.14897 21.4887 4.82826 21.2327C5.39194 22.9882 6.48865 24.5235 7.96534 25.6246C9.44203 26.7256 11.225 27.3373 13.0654 27.3743C9.94093 29.833 6.08123 31.1665 2.10801 31.1602C1.40339 31.1592 0.699465 31.1159 0 31.0307C4.03637 33.6248 8.73174 35.0025 13.5274 35Z" fill="#111111"/>
</svg>
