<svg width="252" height="63" viewBox="0 0 252 63" fill="none" xmlns="http://www.w3.org/2000/svg">
<path d="M62.5097 31.0138C62.5097 48.1418 48.6296 62.0277 31.5016 62.0277C14.3736 62.0277 0.487793 48.1418 0.487793 31.0138C0.487793 13.8858 14.3736 0 31.5016 0C48.6296 0 62.5097 13.8858 62.5097 31.0138Z" fill="#CBCBCB"/>
<path d="M31.7467 48.3071C23.2283 48.3361 14.3623 41.0651 14.3224 29.3844C14.2939 21.6636 18.4648 14.2278 23.7867 9.81765C28.9832 5.52142 36.0999 2.75789 42.5499 2.73511C43.3818 2.73511 44.2536 2.80336 44.7835 2.98571C39.1426 4.15379 34.6526 9.40725 34.6697 15.3616C34.6697 15.5609 34.6867 15.7718 34.7094 15.8687C44.1509 18.1707 48.4357 23.8686 48.4642 31.7488C48.4869 39.6348 42.2649 48.2728 31.7465 48.307" fill="#F4F4F4"/>
<path d="M82.538 43.8569L73.0566 21.2305H79.2503L85.1647 36.2559L90.8969 21.2305H96.8113L87.6092 43.8569H82.538Z" fill="#CBCBCB"/>
<path d="M113.313 32.4272C113.313 31.487 113.204 30.5924 112.982 29.7434C112.766 28.8945 112.435 28.1651 111.996 27.5555C111.558 26.9401 111.028 26.4557 110.401 26.0968C109.774 25.7321 109.039 25.5498 108.196 25.5498C107.353 25.5498 106.612 25.7321 105.991 26.0968C105.364 26.4557 104.828 26.9401 104.395 27.5555C103.957 28.1651 103.626 28.8945 103.41 29.7434C103.187 30.5924 103.079 31.487 103.079 32.4272C103.079 33.4015 103.187 34.3075 103.41 35.1393C103.626 35.9713 103.945 36.7006 104.367 37.3274C104.789 37.9542 105.324 38.4498 105.968 38.8145C106.606 39.1734 107.353 39.3559 108.196 39.3559C109.039 39.3559 109.774 39.1735 110.401 38.8145C111.028 38.4498 111.558 37.9542 111.996 37.3274C112.435 36.7006 112.766 35.9713 112.982 35.1393C113.204 34.3075 113.313 33.4015 113.313 32.4272ZM119.039 32.452C119.039 33.9277 118.811 35.375 118.361 36.7995C117.905 38.224 117.233 39.4946 116.338 40.6227C115.449 41.751 114.321 42.657 112.959 43.3464C111.598 44.0359 110.008 44.3777 108.196 44.3777C106.378 44.3777 104.789 44.0358 103.432 43.3464C102.071 42.657 100.942 41.751 100.048 40.6228C99.159 39.4946 98.4867 38.224 98.0308 36.7995C97.5807 35.375 97.3528 33.9277 97.3528 32.452C97.3528 30.9819 97.5807 29.546 98.0308 28.133C98.4867 26.7255 99.159 25.4663 100.048 24.3552C100.942 23.2441 102.071 22.3552 103.432 21.6829C104.789 21.0105 106.378 20.6687 108.196 20.6687C110.008 20.6687 111.592 21.0106 112.937 21.6829C114.281 22.3552 115.41 23.2441 116.315 24.3552C117.227 25.4663 117.905 26.7255 118.361 28.133C118.811 29.546 119.039 30.9819 119.039 32.452Z" fill="#CBCBCB"/>
<path d="M136.526 26.2105C135.404 25.7718 134.361 25.5495 133.392 25.5495C132.401 25.5495 131.54 25.7435 130.828 26.1193C130.11 26.4952 129.518 27.0025 129.05 27.6464C128.583 28.2902 128.236 29.0139 128.002 29.8173C127.768 30.615 127.649 31.4412 127.649 32.2902C127.649 33.2304 127.751 34.1306 127.956 34.9967C128.156 35.8571 128.469 36.6149 128.891 37.2588C129.307 37.9026 129.837 38.4211 130.475 38.8143C131.113 39.2017 131.871 39.4012 132.743 39.4012C133.461 39.4012 134.19 39.2019 134.936 38.8143C135.683 38.4211 136.213 37.9539 136.526 37.424L136.526 26.2105ZM136.993 43.857L136.76 42.1248C136.23 42.7174 135.529 43.2416 134.652 43.6917C133.78 44.1475 132.748 44.3755 131.563 44.3755C130.008 44.3755 128.629 44.0451 127.449 43.3898C126.258 42.7345 125.261 41.857 124.452 40.763C123.643 39.669 123.022 38.3984 122.6 36.9568C122.184 35.5209 121.974 34.0167 121.974 32.4498C121.974 30.9797 122.19 29.5381 122.623 28.1307C123.062 26.7233 123.723 25.4641 124.612 24.353C125.506 23.2419 126.617 22.353 127.962 21.6807C129.301 21.0083 130.88 20.6664 132.686 20.6664C133.871 20.6664 135.153 20.8885 136.526 21.3217V12.5469H142.344V43.857H136.993Z" fill="#CBCBCB"/>
<path d="M158.731 33.2475C158.104 33.2806 157.454 33.3389 156.793 33.4129C156.132 33.4927 155.506 33.5953 154.907 33.7205C153.642 33.9711 152.771 34.3986 152.281 35.0083C151.796 35.6237 151.551 36.2846 151.551 37.0083C151.551 37.7547 151.825 38.3587 152.377 38.8145C152.93 39.2647 153.705 39.4925 154.714 39.4925C155.471 39.4925 156.206 39.3387 156.913 39.0253C157.619 38.7119 158.229 38.3188 158.731 37.8516V33.2475ZM159.198 43.84L158.97 42.1477C158.337 42.8428 157.54 43.3899 156.565 43.7831C155.591 44.1763 154.526 44.3756 153.363 44.3756C152.389 44.3756 151.449 44.2102 150.56 43.8799C149.659 43.5553 148.867 43.0822 148.178 42.4725C147.489 41.8628 146.93 41.1164 146.509 40.2218C146.081 39.3272 145.87 38.3187 145.87 37.1905C145.87 36.0681 146.087 35.0709 146.531 34.2105C146.97 33.3501 147.563 32.6265 148.32 32.0282C149.073 31.4356 149.939 30.9513 150.913 30.5753C151.882 30.1994 152.907 29.9142 153.973 29.7262C154.725 29.5724 155.551 29.4583 156.446 29.3785C157.34 29.2987 158.087 29.2305 158.685 29.1676V28.8373C158.685 27.5837 158.366 26.6948 157.716 26.1592C157.072 25.6293 156.184 25.3615 155.055 25.3615C154.394 25.3615 153.762 25.4413 153.164 25.6009C152.565 25.7547 152.036 25.9486 151.563 26.1821C151.09 26.4215 150.674 26.655 150.309 26.8887C149.95 27.1223 149.659 27.333 149.437 27.5211L147.511 23.4414C147.762 23.2193 148.144 22.9571 148.662 22.6437C149.181 22.3303 149.802 22.0226 150.543 21.7263C151.278 21.4298 152.104 21.1793 153.027 20.9741C153.95 20.7691 154.947 20.6665 156.007 20.6665C157.26 20.6665 158.406 20.832 159.437 21.1623C160.468 21.4927 161.363 22.0056 162.115 22.7121C162.862 23.4129 163.448 24.3018 163.876 25.3844C164.297 26.4613 164.508 27.7661 164.508 29.2988V43.84H159.198Z" fill="#CBCBCB"/>
<path d="M182.491 17.7091C182.303 17.6182 181.938 17.4813 181.391 17.3101C180.839 17.1394 180.115 17.0538 179.203 17.0538C178.394 17.0538 177.71 17.299 177.163 17.7831C176.616 18.2674 176.343 19.0595 176.343 20.1534V21.2304H181.226V25.9254H176.389V43.8568H170.565V25.9254H167.562V21.2304H170.565V20.011C170.565 18.5409 170.753 17.2988 171.129 16.2789C171.505 15.2647 172.03 14.4327 172.702 13.7946C173.374 13.1507 174.166 12.6778 175.072 12.3815C175.984 12.085 176.97 11.937 178.035 11.937C179.443 11.937 180.605 12.0681 181.528 12.336C182.451 12.6039 182.992 12.7805 183.146 12.8773L182.491 17.7091Z" fill="#CBCBCB"/>
<path d="M198.36 32.4272C198.36 31.487 198.246 30.5924 198.029 29.7434C197.813 28.8945 197.482 28.1651 197.044 27.5555C196.605 26.9401 196.075 26.4557 195.448 26.0968C194.821 25.7321 194.086 25.5498 193.243 25.5498C192.4 25.5498 191.659 25.7321 191.038 26.0968C190.411 26.4557 189.876 26.9401 189.437 27.5555C189.004 28.1651 188.673 28.8945 188.451 29.7434C188.235 30.5924 188.126 31.487 188.126 32.4272C188.126 33.4015 188.235 34.3075 188.451 35.1393C188.673 35.9713 188.992 36.7006 189.414 37.3274C189.836 37.9542 190.371 38.4498 191.009 38.8145C191.653 39.1734 192.4 39.3559 193.243 39.3559C194.086 39.3559 194.821 39.1735 195.448 38.8145C196.075 38.4498 196.605 37.9542 197.044 37.3274C197.482 36.7006 197.813 35.9713 198.029 35.1393C198.246 34.3075 198.36 33.4015 198.36 32.4272ZM204.086 32.452C204.086 33.9277 203.858 35.375 203.402 36.7995C202.952 38.224 202.28 39.4946 201.385 40.6227C200.497 41.751 199.368 42.657 198.007 43.3464C196.645 44.0359 195.055 44.3777 193.243 44.3777C191.425 44.3777 189.836 44.0358 188.48 43.3464C187.118 42.657 185.99 41.751 185.095 40.6228C184.206 39.4946 183.534 38.224 183.078 36.7995C182.622 35.375 182.4 33.9277 182.4 32.452C182.4 30.9819 182.622 29.546 183.078 28.133C183.534 26.7255 184.206 25.4663 185.095 24.3552C185.99 23.2441 187.118 22.3552 188.48 21.6829C189.836 21.0105 191.425 20.6687 193.243 20.6687C195.055 20.6687 196.639 21.0106 197.984 21.6829C199.328 22.3552 200.457 23.2441 201.363 24.3552C202.274 25.4663 202.952 26.7255 203.402 28.133C203.858 29.546 204.086 30.9819 204.086 32.452Z" fill="#CBCBCB"/>
<path d="M222.154 43.8569V30.9512C222.154 29.2304 221.795 27.8971 221.078 26.9569C220.354 26.0225 219.357 25.5495 218.069 25.5495C217.163 25.5495 216.325 25.7831 215.562 26.256C214.793 26.7233 214.126 27.2418 213.562 27.8059V43.8569H207.744V21.2305H213.049L213.328 23.014C214.24 22.2676 215.26 21.6863 216.405 21.2818C217.545 20.8716 218.696 20.6721 219.852 20.6721C221.043 20.6721 222.137 20.8487 223.14 21.2077C224.143 21.5724 225.003 22.1421 225.721 22.9227C226.445 23.7034 226.998 24.7233 227.391 25.9712C227.778 27.2247 227.978 28.729 227.978 30.4782V43.8569H222.154Z" fill="#CBCBCB"/>
<path d="M246.086 29.823C246.023 29.0423 245.858 28.3585 245.59 27.7831C245.322 27.2019 244.992 26.7346 244.598 26.3757C244.205 26.011 243.784 25.7489 243.328 25.5722C242.866 25.4015 242.405 25.3159 241.932 25.3159C240.923 25.3159 239.966 25.6918 239.054 26.4441C238.143 27.1962 237.607 28.3187 237.448 29.823H246.086ZM237.311 33.9995C237.436 35.9083 238.029 37.2872 239.1 38.1305C240.166 38.9738 241.55 39.4011 243.242 39.4011C244.029 39.4011 244.769 39.3271 245.459 39.1903C246.148 39.048 246.764 38.8711 247.299 38.649C247.835 38.4323 248.291 38.2103 248.667 37.9937C249.043 37.7717 249.322 37.5664 249.516 37.3784L251.066 42.1247C250.843 42.2785 250.49 42.4894 250.006 42.7572C249.522 43.0251 248.918 43.27 248.2 43.5093C247.482 43.7429 246.633 43.9424 245.664 44.119C244.695 44.2897 243.63 44.3753 242.473 44.3753C240.997 44.3753 239.601 44.1417 238.268 43.6745C236.94 43.2016 235.772 42.4722 234.775 41.4865C233.772 40.5008 232.975 39.2757 232.382 37.8056C231.784 36.3355 231.488 34.5806 231.488 32.5465C231.488 30.6376 231.761 28.9454 232.308 27.4753C232.855 26.0052 233.607 24.7687 234.559 23.7659C235.516 22.7688 236.627 21.9996 237.892 21.4639C239.163 20.9341 240.513 20.6663 241.955 20.6663C243.396 20.6663 244.724 20.9057 245.949 21.3728C247.168 21.84 248.222 22.5694 249.117 23.5551C250.006 24.5409 250.712 25.8171 251.225 27.3841C251.744 28.9453 252 30.8086 252 32.9681V33.9994L237.311 33.9995Z" fill="#CBCBCB"/>
</svg>
